<mxfile host="app.diagrams.net" agent="Mozilla/5.0 (Macintosh; Intel Mac OS X 10_15_7) AppleWebKit/537.36 (KHTML, like Gecko) Chrome/133.0.0.0 Safari/537.36" version="26.0.13">
  <diagram name="第 1 页" id="Dbv_p4bsYEW3tgNIge1V">
    <mxGraphModel dx="954" dy="630" grid="1" gridSize="10" guides="1" tooltips="1" connect="1" arrows="1" fold="1" page="1" pageScale="1" pageWidth="827" pageHeight="1169" math="0" shadow="0">
      <root>
        <mxCell id="0" />
        <mxCell id="1" parent="0" />
        <mxCell id="5cQ4iYuFxSIM7iHGhTt3-1" value="" style="rounded=1;whiteSpace=wrap;html=1;" vertex="1" parent="1">
          <mxGeometry x="190" y="120" width="140" height="260" as="geometry" />
        </mxCell>
        <mxCell id="5cQ4iYuFxSIM7iHGhTt3-2" value="" style="rounded=1;whiteSpace=wrap;html=1;" vertex="1" parent="1">
          <mxGeometry x="430" y="115" width="240" height="270" as="geometry" />
        </mxCell>
        <mxCell id="5cQ4iYuFxSIM7iHGhTt3-4" value="" style="whiteSpace=wrap;html=1;shape=mxgraph.basic.document" vertex="1" parent="1">
          <mxGeometry x="217.5" y="270" width="85" height="80" as="geometry" />
        </mxCell>
        <mxCell id="5cQ4iYuFxSIM7iHGhTt3-6" value="" style="whiteSpace=wrap;html=1;shape=mxgraph.basic.document" vertex="1" parent="1">
          <mxGeometry x="520" y="290" width="85" height="80" as="geometry" />
        </mxCell>
        <mxCell id="5cQ4iYuFxSIM7iHGhTt3-7" value="" style="shape=datastore;whiteSpace=wrap;html=1;" vertex="1" parent="1">
          <mxGeometry x="215" y="140" width="90" height="60" as="geometry" />
        </mxCell>
        <mxCell id="5cQ4iYuFxSIM7iHGhTt3-8" value="" style="shape=datastore;whiteSpace=wrap;html=1;" vertex="1" parent="1">
          <mxGeometry x="530" y="140" width="115" height="60" as="geometry" />
        </mxCell>
        <mxCell id="5cQ4iYuFxSIM7iHGhTt3-13" value="" style="group" vertex="1" connectable="0" parent="1">
          <mxGeometry x="438" y="140" width="102" height="70" as="geometry" />
        </mxCell>
        <mxCell id="5cQ4iYuFxSIM7iHGhTt3-9" value="" style="sketch=0;pointerEvents=1;shadow=0;dashed=0;html=1;strokeColor=none;labelPosition=center;verticalLabelPosition=bottom;verticalAlign=top;align=center;fillColor=#505050;shape=mxgraph.mscae.enterprise.settings;direction=south;" vertex="1" parent="5cQ4iYuFxSIM7iHGhTt3-13">
          <mxGeometry y="11" width="50" height="50" as="geometry" />
        </mxCell>
        <mxCell id="5cQ4iYuFxSIM7iHGhTt3-10" value="" style="sketch=0;pointerEvents=1;shadow=0;dashed=0;html=1;strokeColor=none;labelPosition=center;verticalLabelPosition=bottom;verticalAlign=top;align=center;fillColor=#505050;shape=mxgraph.mscae.enterprise.settings" vertex="1" parent="5cQ4iYuFxSIM7iHGhTt3-13">
          <mxGeometry x="38" width="27" height="20" as="geometry" />
        </mxCell>
        <mxCell id="5cQ4iYuFxSIM7iHGhTt3-21" value="I/O thread" style="text;html=1;align=center;verticalAlign=middle;whiteSpace=wrap;rounded=0;" vertex="1" parent="5cQ4iYuFxSIM7iHGhTt3-13">
          <mxGeometry x="42" y="40" width="60" height="30" as="geometry" />
        </mxCell>
        <mxCell id="5cQ4iYuFxSIM7iHGhTt3-14" value="" style="group" vertex="1" connectable="0" parent="1">
          <mxGeometry x="590" y="200" width="65" height="61" as="geometry" />
        </mxCell>
        <mxCell id="5cQ4iYuFxSIM7iHGhTt3-15" value="" style="sketch=0;pointerEvents=1;shadow=0;dashed=0;html=1;strokeColor=none;labelPosition=center;verticalLabelPosition=bottom;verticalAlign=top;align=center;fillColor=#505050;shape=mxgraph.mscae.enterprise.settings;direction=south;" vertex="1" parent="5cQ4iYuFxSIM7iHGhTt3-14">
          <mxGeometry y="11" width="50" height="50" as="geometry" />
        </mxCell>
        <mxCell id="5cQ4iYuFxSIM7iHGhTt3-16" value="" style="sketch=0;pointerEvents=1;shadow=0;dashed=0;html=1;strokeColor=none;labelPosition=center;verticalLabelPosition=bottom;verticalAlign=top;align=center;fillColor=#505050;shape=mxgraph.mscae.enterprise.settings" vertex="1" parent="5cQ4iYuFxSIM7iHGhTt3-14">
          <mxGeometry x="38" width="27" height="20" as="geometry" />
        </mxCell>
        <mxCell id="5cQ4iYuFxSIM7iHGhTt3-17" style="edgeStyle=orthogonalEdgeStyle;rounded=0;orthogonalLoop=1;jettySize=auto;html=1;entryX=0.5;entryY=0;entryDx=0;entryDy=0;entryPerimeter=0;" edge="1" parent="1" source="5cQ4iYuFxSIM7iHGhTt3-7" target="5cQ4iYuFxSIM7iHGhTt3-4">
          <mxGeometry relative="1" as="geometry" />
        </mxCell>
        <mxCell id="5cQ4iYuFxSIM7iHGhTt3-19" value="" style="curved=1;endArrow=classic;html=1;rounded=0;exitX=0.858;exitY=0.078;exitDx=0;exitDy=0;exitPerimeter=0;entryX=0.5;entryY=0.88;entryDx=0;entryDy=0;entryPerimeter=0;" edge="1" parent="1" source="5cQ4iYuFxSIM7iHGhTt3-4" target="5cQ4iYuFxSIM7iHGhTt3-9">
          <mxGeometry width="50" height="50" relative="1" as="geometry">
            <mxPoint x="302.5" y="280" as="sourcePoint" />
            <mxPoint x="352.5" y="230" as="targetPoint" />
            <Array as="points">
              <mxPoint x="302.5" y="230" />
            </Array>
          </mxGeometry>
        </mxCell>
        <mxCell id="5cQ4iYuFxSIM7iHGhTt3-20" value="" style="curved=1;endArrow=classic;html=1;rounded=0;exitX=0.858;exitY=0.078;exitDx=0;exitDy=0;exitPerimeter=0;entryX=0.5;entryY=0.88;entryDx=0;entryDy=0;entryPerimeter=0;" edge="1" parent="1">
          <mxGeometry width="50" height="50" relative="1" as="geometry">
            <mxPoint x="454" y="186" as="sourcePoint" />
            <mxPoint x="300" y="286" as="targetPoint" />
            <Array as="points">
              <mxPoint x="441.5" y="232" />
              <mxPoint x="380" y="270" />
            </Array>
          </mxGeometry>
        </mxCell>
        <mxCell id="5cQ4iYuFxSIM7iHGhTt3-27" value="I/O thread" style="text;html=1;align=center;verticalAlign=middle;whiteSpace=wrap;rounded=0;" vertex="1" parent="1">
          <mxGeometry x="610" y="260" width="60" height="30" as="geometry" />
        </mxCell>
      </root>
    </mxGraphModel>
  </diagram>
</mxfile>
